<svg xmlns="http://www.w3.org/2000/svg" height="187.751" width="250.271"><path d="M69.239 118.846c-8.2 9.227-17.006 55.285-7.908 58.162 8.456 2.675 10.588-5.881 12.315-11.955 1.547-5.44 8.187-30.608 15.063-31.716 9.82-1.583-.151 19.928-.874 23.211-1.256 5.7-2.74 12.629-2.291 18.462.834 10.821 7.161 15.788 14.667 5.658 2.917-3.937 2.49-8.468 3.338-12.929 2.2-11.546 11.834-24.5 22.082-30.683 6.177 12.823-10.2 34.576 1.87 41.664 7.122 4.181 9.637-5.7 11.886-11.41 3.4-8.622 6.771-20.442 17.328-24.171-9.749 24.171.1 35.539 9.2 27.96 9.235-7.7-5.238-47.588 16.636-30.351 5.958 4.7-3.629-15.056-2.969-22.692 1.57-18.155 17.151-30.063 19.679-47.753 1.432-10.017 16.034-20.126 23.022-26.2 3.971-3.455 25.854-20.05 16-24.569-5.124-2.351-11.86 4.5-17.853.649-4.092-2.629-4.147-7.624-6.737-11.277-5.257-7.42-14.217-12.152-21.865-5.858-8.791 7.234-13.052 22.536-16.855 32.491-2.848 7.45-8.174 16.823-6.836 25.243.359 2.259 3.3 4.472 3.111 6.476-.769 8.311-6.361 7.228-12.068 3.9-7.332-4.275-10.521-8.184-19.855-6.887-8.341 1.16-24.731 6.2-28.736 14.373" fill="#f7c9a1"/><path d="M179.744 116.585c-27-1.941-67.558-4.406-101.6-6.4l-8.906 8.66c-4.316 4.857-8.8 19.913-10.751 33.509 5.311.847 11.313 2.08 17.817 3.587 2.917-9.328 7.6-21.831 12.4-22.6 9.82-1.583-.151 19.928-.874 23.211-.15.68-.3 1.379-.456 2.091a1066.433 1066.433 0 0117.379 4.584c3.484-10.255 11.945-20.777 20.873-26.167 4.21 8.74-2.053 21.626-2.649 31.192 4.834 1.343 9.691 2.7 14.525 4.029.694-1.724 1.3-3.486 1.88-4.967 3.4-8.622 6.771-20.442 17.329-24.171-9.75 24.171.1 35.539 9.2 27.96 9.235-7.7-5.238-47.588 16.636-30.351 5.958 4.7-3.629-15.056-2.969-22.692.045-.502.103-.988.166-1.475z" fill="#e39d74"/><path d="M69.239 118.846c-8.2 9.227-17.006 55.285-7.908 58.162 8.456 2.675 10.588-5.881 12.315-11.955 1.547-5.44 8.187-30.608 15.063-31.716 9.82-1.583-.151 19.928-.874 23.211-1.256 5.7-2.74 12.629-2.291 18.462.834 10.821 7.161 15.788 14.667 5.658 2.917-3.937 2.49-8.468 3.338-12.929 2.2-11.546 11.834-24.5 22.082-30.683 6.177 12.823-10.2 34.576 1.87 41.664 7.122 4.181 9.637-5.7 11.886-11.41 3.4-8.622 6.771-20.442 17.328-24.171-9.749 24.171.1 35.539 9.2 27.96 9.235-7.7-5.238-47.588 16.636-30.351 5.958 4.7-3.629-15.056-2.969-22.692 1.57-18.155 17.151-30.063 19.679-47.753 1.516-10.61 39.4-39.617 39.4-39.617" fill="none" stroke="#3e4147" stroke-linecap="round" stroke-linejoin="round" stroke-width="3"/><path d="M83.644 119.598c-22.3-5.052-47.222-10.842-74.119-17.217a.675.675 0 01-.251-1.2l49.828-37.469a.677.677 0 01.581-.113c.25.067 25.351 6.718 65.022 13.664l1.521-1.569c-26.271-4.025-51.959-8.861-67.417-14.084L2.75 103.183l79.462 17.889z" fill="#cedd3e"/><path d="M129.66 120.888c20.384-1.924 36.183-11.8 35.219-22.007-.649-6.87-8.793-12.4-21.276-14.5-10.784 12.337-23.453 26.958-31.078 36.023a68.3 68.3 0 0017.135.484zM75.178 82.881a17.3 17.3 0 00-8.639-1.2c-6.369.6-11.473 4.064-11.143 7.562.156 1.652 1.479 3.123 3.723 4.143a17.332 17.332 0 008.639 1.2c6.369-.6 11.471-4.065 11.141-7.562-.156-1.652-1.477-3.123-3.721-4.143zM184.175 116.036a17.344 17.344 0 008.639 1.2c6.368-.6 11.471-4.065 11.141-7.562-.156-1.652-1.479-3.124-3.722-4.143a17.32 17.32 0 00-8.638-1.2c-6.37.6-11.471 4.065-11.141 7.562.156 1.652 1.477 3.124 3.721 4.143z" fill="#94a727"/><path d="M239.393 91.279a.675.675 0 01.583.922l-20.978 53.135a.677.677 0 01-.629.428.53.53 0 01-.089-.006c-.133-.017-14.315-1.966-109.717-20.585-.474.581-.885 1.092-1.251 1.552l115.6 26.024c7.865-19.3 22.142-55.728 22.925-62.845-5-.452-38.152-3.5-75.795-8.181-6.877-.855-14.168-1.8-21.638-2.82l-1.731 1.977c31.164 4.822 62.353 8.324 92.72 10.399zM123.566 78.438c-36.808-6.476-60.9-12.659-63.912-13.446l-48.415 36.406c26.678 6.318 51.4 12.057 73.507 17.064l6.867-7.08a11.419 11.419 0 01-2.016-5.393c-.895-9.482 11.275-18.877 28.964-22.391zM67.883 95.933c-.711.067-1.418.1-2.113.1a17.634 17.634 0 01-7.212-1.415c-2.7-1.23-4.3-3.093-4.508-5.247-.413-4.373 5.017-8.343 12.361-9.036a18.716 18.716 0 019.325 1.315c2.7 1.229 4.3 3.093 4.509 5.247.414 4.373-5.016 8.342-12.361 9.036z" fill="#cedd3e"/><path d="M109.539 123.985c85.212 16.626 105.175 19.864 108.4 20.356l20.442-51.777c-30.392-2.1-61.594-5.629-92.769-10.476l-.972 1.111c12.653 2.309 20.894 8.2 21.587 15.555 1.034 10.953-15.312 21.486-36.438 23.481-2.332.22-4.664.329-6.964.329a65.389 65.389 0 01-11.308-.955q-1.076 1.283-1.978 2.376zm81.929-21a18.727 18.727 0 019.325 1.316c2.7 1.229 4.3 3.092 4.508 5.247.412 4.372-5.016 8.342-12.361 9.036-.711.067-1.418.1-2.113.1a17.613 17.613 0 01-7.211-1.416c-2.7-1.228-4.306-3.092-4.509-5.247-.413-4.373 5.017-8.343 12.359-9.037z" fill="#cedd3e"/><path d="M90.944 105.858a10.028 10.028 0 001.646 4.514l24.278-25.031c-15.928 3.643-26.72 12.085-25.924 20.517z" fill="#94a727"/><path d="M218.183 168.098a.676.676 0 01.006-.949 2.667 2.667 0 00.216-.27c.039-.053.081-.11.126-.167a4.749 4.749 0 01-.143-.551 1.63 1.63 0 00-.178-.556.674.674 0 01.141-.953c.23-.168.487-.324.747-.481.775-.468 1.248-.787 1.281-1.277a1.5 1.5 0 01-.206-.211 1.741 1.741 0 01-.548-1.085c-.006-.2-.015-.345-.021-.451a3.391 3.391 0 01.117-1.153l.023-.116c.01-.051.807-4.016 2.172-5.967l-115.519-26.006a7.6 7.6 0 00-.7 1.033c-.479 1.426.769 12.044 1.819 19.591l109.449 32.278c-.26-1.357-.528-4.487.417-5.7a6.524 6.524 0 01.678-3.391c.644-1.67.975-2.745.123-3.618z" fill="#b5c933"/><path d="M247.666 104.458a.677.677 0 01-.642-.617 4.879 4.879 0 01.487-2.271 5.115 5.115 0 00.385-1.238.936.936 0 00-.157-.413 1.822 1.822 0 01-.163-1.732c-1.33-1.106-.722-2.753-.3-3.889a5.906 5.906 0 00.426-1.52 2.445 2.445 0 00-.632-2.059c-1.936 11.061-22.215 60.847-23.124 63.073a.669.669 0 01-.459.4l-.015.007c-.669.173-1.92 3.5-2.4 5.946l-.023.117a2.282 2.282 0 00-.095.814c.007.113.015.264.022.483.015.014.131.144.207.231a1.635 1.635 0 01.545 1.2c-.082 1.229-1.106 1.848-1.931 2.346l-.191.115c.044.149.076.3.106.436a1.819 1.819 0 00.182.575.675.675 0 01-.108.876 1.884 1.884 0 00-.249.292c.988 1.466.328 3.176-.215 4.576a4.726 4.726 0 00-.546 2.911.675.675 0 01-.351.828c-.395.317-.406 2.446-.265 3.836l29.5-71.979a9.158 9.158 0 01.369-1.236c.22-.631.552-1.584.348-1.887-.086-.121-.342-.206-.711-.221z" fill="#abb833"/><path d="M104.419 128.494a9.918 9.918 0 011.124-1.652.667.667 0 01.136-.177c.536-.7 1.226-1.561 2.047-2.571a.712.712 0 01.091-.112c.832-1.021 1.8-2.185 2.858-3.458a.711.711 0 01.049-.059c10.494-12.56 30.882-35.86 36.074-41.783-6.244-.86-12.6-1.774-18.929-2.735a573152.3 573152.3 0 00-42.152 43.457.67.67 0 01-.453.467l-4.033 4.159c-.809.979.243 9.621 1.745 17.674v.029c.076.407.152.815.231 1.218l23.1 6.711c-.616-4.366-2.611-19.014-1.888-21.168z" fill="#fff"/><path d="M80.26 123.087l.85-.876-77.544-17.453c.153.488.352 1.129.477 1.545a.676.676 0 01-.28.763c-.071.046-.235.163-.234.269 0 .145.2.481.745.812a.673.673 0 01.323.628c-.137 1.833.2 2.348 1.214 3.875l.3.453a.675.675 0 01-.077.838c-.362.38-.248 1.144-.148 1.567a6.674 6.674 0 002.255 3.62.662.662 0 01.266.175l73.037 21.539c-1.07-5.859-2.691-16.201-1.184-17.755z" fill="#b5c933"/><g fill="none" stroke="#3e4147" stroke-linecap="round" stroke-linejoin="round" stroke-width="2.328" transform="translate(-11257.534 -1816.742)"><path d="M11363.665 1943.894l117.188 26.382s23.383-57.31 23.225-64.245c0 0-141.171-12.486-187.852-28.432l-57.528 42.664 81.271 18.3M11480.853 1970.276c-1.335.307-2.618 4.985-2.911 6.474a3.8 3.8 0 00-.107 1.567c.016.5.787.854.753 1.364-.077 1.155-1.413 1.61-2.3 2.26.343.454.254 1.138.583 1.631-.27.243-.443.573-.664.8 2.143 2.2-1.345 5.313-.533 7.7-1.166.553-.659 5.222-.4 5.79"/><path d="M11364.442 1965.8l111.14 32.777 30.26-73.846c.247-1.468 1.991-4.08-.607-4.205-.106-1.225.727-2.213.868-3.369.1-.831-1.078-1.283-.051-2.423-2.3-1.151-.244-3.431-.142-5.174.1-1.786-.554-2.412-1.833-3.526M11260.266 1921.107c.1.312.47 1.49.661 2.129-1.01.652-.48 1.613.526 2.227-.167 2.25.364 2.826 1.622 4.749-1.469 1.535 1.14 5.855 2.368 6.292l-.246.023 74.646 22.015"/><path d="M11405.665 1894.929s-42.3 48.215-43.071 50.522 2.067 21.9 2.067 21.9l-24.5-7.119s-3.571-18.186-1.882-19.928l46.871-48.322"/><path d="M11342.6 1935.971c-21.46-4.858-46.4-10.636-75.388-17.505l49.828-37.469s25.057 6.684 65.432 13.738M11402.882 1898.107c27.062 4.216 59.1 8.2 94 10.589l-20.979 53.134s-13.223-1.752-110.067-20.655"/><ellipse cx="12.479" cy="7.157" rx="12.479" ry="7.157" transform="rotate(-5.4 26112.934 -120436.9)"/><ellipse cx="12.479" cy="7.157" rx="12.479" ry="7.157" transform="rotate(-5.4 25810.008 -119120.78)"/><path d="M11368.781 1937.624a67.891 67.891 0 0018.476.679c20.789-1.963 36.83-12.145 35.83-22.743-.706-7.469-9.687-13.151-22.205-15.168M11376.431 1900.962c-17.164 3.355-29.508 12.369-28.626 21.706a10.919 10.919 0 002.217 5.527"/></g><path d="M192.438 2.096c-12.93 17.679-18.829 31.934-28.109 36.153s-27 .844-38.812 7.594-17.719 21.937-27.844 31.218-18.229 15.263-22.429 16.8-1.271 15.857 15.89 9.062 47.668-26.041 47.668-26.041 23.16 14.816 41.512-8.095" fill="#f7c9a1"/><path d="M136.826 67.62c-5.98 2.242-18.687 11.211-35.13 21.676s-22.42 14.937-28.021 9.041c.854 4.211 5.955 9.142 17.458 4.587 17.16-6.8 47.668-26.041 47.668-26.041s17.316 11.059 33.867-.757c-26.535 5.799-29.865-10.748-35.842-8.506z" fill="#e39d74"/><path d="M192.438 2.096c-12.93 17.679-18.829 31.934-28.109 36.153s-27 .844-38.812 7.594-17.719 21.937-27.844 31.218-18.229 15.263-22.429 16.8-1.271 15.857 15.89 9.062 47.668-26.041 47.668-26.041 23.16 14.816 41.512-8.095" fill="none" stroke="#3e4147" stroke-linecap="round" stroke-linejoin="round" stroke-width="3"/></svg>
