<svg xmlns="http://www.w3.org/2000/svg" xmlns:xlink="http://www.w3.org/1999/xlink" viewBox="0 0 154.19 40"><defs><style>.cls-1{fill:none;clip-rule:evenodd;}.cls-2{clip-path:url(#clip-path);}.cls-3{fill:#fff;}.cls-4{fill:#ed8c21;}.cls-5{fill:#612469;}.cls-6{fill:#fac714;}.cls-7{fill:#c43826;}.cls-8{fill:#3391c4;}</style><clipPath id="clip-path"><path class="cls-1" d="M14.6,22.9H10.74v-6h1.17v4.9H14.6V22.9Zm2.8,0H16.21v-6H17.4v6Zm6.23-4.59-1.06.33a1,1,0,0,0-1.09-.85.86.86,0,0,0-.95.76.7.7,0,0,0,.66.68l.84.16a1.84,1.84,0,0,1,1.68,1.78A2,2,0,0,1,21.54,23a2.2,2.2,0,0,1-2.4-1.89l1.09-.28A1.21,1.21,0,0,0,21.55,22c.62,0,1-.32,1-.74s-.26-.62-.73-.72L21,20.36a1.74,1.74,0,0,1-1.58-1.72,2,2,0,0,1,2.1-1.89,2,2,0,0,1,2.16,1.56ZM30,18H28.07V22.9H26.89V18H25V16.88h5V18Zm5.38,4.91H31.59v-6h3.77V18h-2.6v1.38h2.35v1H32.76v1.4h2.6v1.1Zm7,0H41.17l-2.73-4.27V22.9H37.26v-6h1.47l2.5,4v-4h1.18v6Zm5.69-3a1.88,1.88,0,1,0,3.76,0,1.88,1.88,0,1,0-3.76,0Zm-1.22,0a3.1,3.1,0,1,1,6.2,0,3.1,3.1,0,1,1-6.2,0ZM60,22.9H58.81l-2.74-4.27V22.9H54.9v-6h1.46l2.51,4v-4H60v6Z"/></clipPath></defs><title>stitcher-badge</title><g id="Layer_2" data-name="Layer 2"><g id="Layer_1-2" data-name="Layer 1"><path d="M0,5,0,35a5,5,0,0,0,5,5H149.19a5,5,0,0,0,5-5V5a5,5,0,0,0-5-5H5A5,5,0,0,0,0,5Z"/><g class="cls-2"><rect class="cls-3" x="9.49" y="15.5" width="51.8" height="8.78"/></g><path class="cls-4" d="M111.31,27.65c4.34,0,8.69,0,13,0v4.28h-13c0-1.43,0-2.85,0-4.28m0-15.1q0-3.92,0-7.82h13c0,2.6,0,5.21,0,7.81Z"/><path class="cls-5" d="M82.29,27.65c4.35,0,8.69,0,13,0,0,1.43,0,2.85,0,4.28h-13c0-1.43,0-2.85,0-4.28m0-21.17h13c0,2,0,4,0,6.07h-13c0-1.68,0-3.36,0-5C82.29,7.16,82.27,6.82,82.29,6.48Z"/><path class="cls-6" d="M96.8,27.66q6.51,0,13,0v7.11h-13V27.66m0-19c4.34,0,8.67,0,13,0l0,.11c0,1.26,0,2.53,0,3.79a1.28,1.28,0,0,1-.39,0H96.8Z"/><path class="cls-7" d="M125.81,27.66q6.56,0,13.1,0c0,.77,0,1.55,0,2.33h-13.1c0-.78,0-1.56,0-2.33m0-18.24h13.09c0,1,0,2.08,0,3.12H125.82C125.81,11.5,125.82,10.46,125.82,9.42Z"/><path class="cls-8" d="M67.71,27.66H80.8c0,2,0,4,0,5.93H67.71Zm0-17.24c.9,0,1.8,0,2.71,0H80.8v2.13c-4.36,0-8.73,0-13.09,0Z"/><path class="cls-3" d="M132.31,17.31c0,.88,0,1.77,0,2.65l.05,0c.64,0,1.27,0,1.91,0a2,2,0,0,0,1.09-.24,1.12,1.12,0,0,0,.51-.86,1.42,1.42,0,0,0-.37-1.28,2,2,0,0,0-1.23-.35c-.58,0-1.17,0-1.75,0a.54.54,0,0,0-.22,0m-2.69-2.2H134a5.84,5.84,0,0,1,2.89.58,2.88,2.88,0,0,1,1.44,1.89,4.33,4.33,0,0,1-.15,2.47,3.21,3.21,0,0,1-1.46,1.6c.71,1.15,1.44,2.29,2.14,3.45-1.06,0-2.13,0-3.19,0-.53-1-1.08-1.94-1.62-2.91-.59,0-1.18,0-1.77,0v2.9h-2.68a6.77,6.77,0,0,1,0-.78c0-.54,0-1.08,0-1.61s0-.86,0-1.28C129.62,19.31,129.63,17.21,129.62,15.11Zm-9.23,0h7.87v2.16h-5.14c-.05.08,0,.19,0,.29,0,.49,0,1,0,1.48h3.12c0,.69,0,1.37,0,2.06H123.1c0,.6,0,1.19,0,1.79h5.16v2.18h-7.87Zm-10.6,0h2.71c0,1.34,0,2.67,0,4h3.81v-4H119v10h-2.7V21.26h-3.81c0,1.28,0,2.56,0,3.84h-2.7C109.79,21.77,109.8,18.44,109.79,15.11Zm-19.18,0h8.56v2.24c-1,0-2,0-2.93,0h-.07c0,2.52,0,5,0,7.58a.08.08,0,0,1-.1.1H93.87a.71.71,0,0,0-.29,0l-.06,0c0-2.57,0-5.15,0-7.73h-2.9C90.6,16.6,90.61,15.85,90.61,15.11Zm-4.12,0H89.2v10H86.49Zm-10,0h8.56v2.25c-1,0-2,0-3,0,0,2.58,0,5.16,0,7.73H79.45c0-2.46,0-4.92,0-7.38a1.45,1.45,0,0,0,0-.36H76.52Zm24.9.75a5.68,5.68,0,0,1,2.66-.82,6.62,6.62,0,0,1,3,.43,3,3,0,0,1,1.67,1.63c-.7.44-1.4.89-2.12,1.31a2.31,2.31,0,0,0-1.9-1.1,2.72,2.72,0,0,0-1.87.54,2.52,2.52,0,0,0-.76,1.66,4.07,4.07,0,0,0,.35,2.23,2.22,2.22,0,0,0,1.37,1.06,2.55,2.55,0,0,0,2.85-1l2.08,1.27a2.87,2.87,0,0,1-1.12,1.34,5.08,5.08,0,0,1-2.57.77,7.23,7.23,0,0,1-3-.43,4.14,4.14,0,0,1-1.93-1.55,5.17,5.17,0,0,1-.78-2.32,6.35,6.35,0,0,1,.35-3A4.3,4.3,0,0,1,101.42,15.86Zm-32-.28A4.79,4.79,0,0,1,71.46,15a5.2,5.2,0,0,1,3.18.67,3,3,0,0,1,1.3,1.4l-1.58,1a2.7,2.7,0,0,1-.52.3,2.23,2.23,0,0,0-2-1.08,1.32,1.32,0,0,0-.87.21.53.53,0,0,0,0,.72,1.79,1.79,0,0,0,.77.46,12.51,12.51,0,0,1,3.1,1.13A2.48,2.48,0,0,1,76,21.46a3.13,3.13,0,0,1-.45,2.35,3.2,3.2,0,0,1-1.8,1.12,9.07,9.07,0,0,1-2.32.25,7.18,7.18,0,0,0-.8-.06,7.31,7.31,0,0,1-1.93-.54,7.44,7.44,0,0,1-1-.52V24a1.37,1.37,0,0,0,.15-.38c.22-.67.43-1.34.65-2a4.76,4.76,0,0,0,3.43,1.26,2,2,0,0,0,1-.23.57.57,0,0,0,.2-.65.8.8,0,0,0-.38-.43,4.91,4.91,0,0,0-1.23-.45,11.66,11.66,0,0,1-1.92-.63,2.85,2.85,0,0,1-1.26-1.07,3,3,0,0,1-.24-2.22A2.53,2.53,0,0,1,69.37,15.58Z"/></g></g></svg>